<svg xmlns="http://www.w3.org/2000/svg" viewBox="0 0 64 64" id="tornado">
  <g>
    <path fill="#444a61" d="M42 25c2-6 6.86-9.82 11.86-13.4-3.63 2-11.38 3.4-20.36 3.4C21.07 15 11 12.31 11 9a1.79 1.79 0 0 1 0-.23c-1.39 3.31 3.51 6.74 3.23 10.44 0 1.52-.32 3-.29 4.51.35 7.25 8.77 12.38 13.63 17 4.91 4.12 11.66 8.88 10.46 16.17a19.38 19.38 0 0 1-.55 2.68 1.14 1.14 0 0 0 1.78 1.22c5.32-4.18 9.38-9.61 7.28-17.07C44.71 37.15 39.6 32.24 42 25Z"></path>
    <path fill="#222538" d="M49.87 32.94c0 2-2.31 3.6-5.81 4.69a51.8 51.8 0 0 1-14.46 1.82c-1.16 0-2.33 0-3.48-.09-8.82-.45-16.79-2.64-16.79-6.42 0-1.94 2-3.53 5.91-4.73A15.19 15.19 0 0 0 16.31 30c-2.71.74-5.22 2.28-5 3 0 1.48 4.59 3.49 12.18 4.22a60.1 60.1 0 0 0 6.09.29A49.74 49.74 0 0 0 43.2 35.8c3-.88 4.67-2 4.67-2.86 0-.37 0-1.5-2-2a1 1 0 0 1 .46-1.94c2.25.55 3.54 2 3.54 3.94Z"></path>
    <ellipse cx="33.5" cy="9" fill="#222538" rx="22.5" ry="6"></ellipse>
    <path fill="#0abf6d" d="M57.69 29.36s.36-2.47-.94-3.77-3.75-.95-3.75-.95-.36 2.47.94 3.77 3.75.95 3.75.95zM12.22 41.33s-2.29-1-3.89-.06-1.88 3.4-1.88 3.4 2.29 1 3.88.06 1.89-3.4 1.89-3.4zm17.4 13.25s-1.13-2.23-2.94-2.58-3.63 1.39-3.63 1.39S24.17 55.65 26 56s3.62-1.42 3.62-1.42z"></path>
    <circle cx="29" cy="33" r="1" fill="#222538"></circle>
    <path fill="#222538" d="M55.53 9.3h-2.54a1 1 0 0 0 0 2s1.78-.06 2.37 0c1.43 0 3.82.53 3.82 2.37 0 2.42-10 5.8-26.21 5.8s-26.18-3.38-26.18-5.8a1.82 1.82 0 0 1 .79-1.19 1 1 0 1 0-1.26-1.56 3.57 3.57 0 0 0-1.53 2.75c0 5.12 14.19 7.8 28.21 7.8s28.21-2.68 28.21-7.8c0-1.2-.54-4.23-5.68-4.37zM33 33.69a51.7 51.7 0 0 0 8.91-1.16 1 1 0 0 0-.45-2 49.43 49.43 0 0 1-8.56 1.17 1 1 0 1 0 .11 2zm8.91 14.63a11.68 11.68 0 0 1-5.08-.32 1 1 0 0 0-.67 1.89 13.85 13.85 0 0 0 6 .43 1 1 0 0 0 .84-1.13 1 1 0 0 0-1.09-.87z"></path>
    <path fill="#222538" d="M46.34 53.79c-3.68 1.35-9.39 2.13-12.49-.38A1 1 0 1 1 35.21 52c3 2 8 1 11.28-.38 2-.91 2.91-2 2.8-2.63s-.94-1-2.17-1.28A12.27 12.27 0 0 0 47 45.6c2.29.3 4.08 1.49 4.29 3 .31 1.96-1.53 3.9-4.95 5.19Z"></path>
  </g>
</svg>
